<?xml version="1.0" encoding="iso-8859-1"?>
<!-- Uploaded to: SVG Repo, www.svgrepo.com, Generator: SVG Repo Mixer Tools -->
<!DOCTYPE svg PUBLIC "-//W3C//DTD SVG 1.1//EN" "http://www.w3.org/Graphics/SVG/1.1/DTD/svg11.dtd">
<svg fill="#000000" version="1.1" id="Capa_1" xmlns="http://www.w3.org/2000/svg" xmlns:xlink="http://www.w3.org/1999/xlink"
	 width="800px" height="800px" viewBox="0 0 122.3 122.3" xml:space="preserve"
	>
<g>
	<path d="M116.3,15.15H6c-3.3,0-6,2.7-6,6v80c0,3.3,2.7,6,6,6h110.3c3.3,0,6-2.7,6-6v-80C122.3,17.85,119.6,15.15,116.3,15.15z
		 M42.6,57.75l-19.7,19.7c-1.7,1.7-4.2,2.3-6.3,1.4c-4.3-1.8-5-7-2.1-9.9l11.2-11.2c2.3-2.3,2.3-6.1,0-8.5l-11.3-11.2
		c-2.9-2.9-2.2-8.1,2.1-9.9c2.2-0.9,4.7-0.3,6.3,1.4l19.7,19.7c1.2,1.2,1.8,2.7,1.8,4.2S43.8,56.55,42.6,57.75z M86.5,79.15h-36
		c-3.3,0-6-2.7-6-6s2.7-6,6-6h36c3.3,0,6,2.7,6,6S89.8,79.15,86.5,79.15z"/>
</g>
</svg>
